<svg id="Filled" height="512" viewBox="0 0 512 512" width="512" xmlns="http://www.w3.org/2000/svg"><path d="m88 72h400v368h-464v-304z" fill="#fae8d8"/><path d="m56 208h96v96h-96z" fill="#b01641"/><circle cx="248" cy="256" fill="#fcb442" r="48"/><path d="m344 304h112l-56-96z" fill="#8e9c4c"/><path d="m24 136 64-64v64z" fill="#e2d2c2"/><path d="m488 64h-400v.019a7.982 7.982 0 0 0 -5.657 2.324l-64 64a7.982 7.982 0 0 0 -2.324 5.657h-.019v304a8 8 0 0 0 8 8h464a8 8 0 0 0 8-8v-368a8 8 0 0 0 -8-8zm-408 27.313v36.687h-36.687zm400 340.687h-448v-288h56a8 8 0 0 0 8-8v-56h384z"/><path d="m56 200a8 8 0 0 0 -8 8v96a8 8 0 0 0 8 8h96a8 8 0 0 0 8-8v-96a8 8 0 0 0 -8-8zm88 96h-80v-80h80z"/><path d="m248 312a56 56 0 1 0 -56-56 56.063 56.063 0 0 0 56 56zm0-96a40 40 0 1 1 -40 40 40.045 40.045 0 0 1 40-40z"/><path d="m344 312h112a8 8 0 0 0 6.91-12.031l-56-96a8 8 0 0 0 -13.82 0l-56 96a8 8 0 0 0 6.91 12.031zm56-88.123 42.071 72.123h-84.142z"/></svg>