<svg width="133" height="29" viewBox="0 0 133 29" fill="none" xmlns="http://www.w3.org/2000/svg">
<path d="M46.6758 10.7852H41.4492V25H37.9336V10.7852H32.7773V7.9375H46.6758V10.7852ZM45.5039 18.543C45.5039 17.2852 45.7461 16.1641 46.2305 15.1797C46.7148 14.1953 47.4102 13.4336 48.3164 12.8945C49.2305 12.3555 50.2891 12.0859 51.4922 12.0859C53.2031 12.0859 54.5977 12.6094 55.6758 13.6562C56.7617 14.7031 57.3672 16.125 57.4922 17.9219L57.5156 18.7891C57.5156 20.7344 56.9727 22.2969 55.8867 23.4766C54.8008 24.6484 53.3438 25.2344 51.5156 25.2344C49.6875 25.2344 48.2266 24.6484 47.1328 23.4766C46.0469 22.3047 45.5039 20.7109 45.5039 18.6953V18.543ZM48.8906 18.7891C48.8906 19.9922 49.1172 20.9141 49.5703 21.5547C50.0234 22.1875 50.6719 22.5039 51.5156 22.5039C52.3359 22.5039 52.9766 22.1914 53.4375 21.5664C53.8984 20.9336 54.1289 19.9258 54.1289 18.543C54.1289 17.3633 53.8984 16.4492 53.4375 15.8008C52.9766 15.1523 52.3281 14.8281 51.4922 14.8281C50.6641 14.8281 50.0234 15.1523 49.5703 15.8008C49.1172 16.4414 48.8906 17.4375 48.8906 18.7891ZM62.7188 12.3203L62.8242 13.7852C63.7305 12.6523 64.9453 12.0859 66.4688 12.0859C67.8125 12.0859 68.8125 12.4805 69.4688 13.2695C70.125 14.0586 70.4609 15.2383 70.4766 16.8086V25H67.0898V16.8906C67.0898 16.1719 66.9336 15.6523 66.6211 15.332C66.3086 15.0039 65.7891 14.8398 65.0625 14.8398C64.1094 14.8398 63.3945 15.2461 62.918 16.0586V25H59.5312V12.3203H62.7188ZM78.8906 25.2344C77.0312 25.2344 75.5156 24.6641 74.3438 23.5234C73.1797 22.3828 72.5977 20.8633 72.5977 18.9648V18.6367C72.5977 17.3633 72.8438 16.2266 73.3359 15.2266C73.8281 14.2188 74.5234 13.4453 75.4219 12.9062C76.3281 12.3594 77.3594 12.0859 78.5156 12.0859C80.25 12.0859 81.6133 12.6328 82.6055 13.7266C83.6055 14.8203 84.1055 16.3711 84.1055 18.3789V19.7617H76.0312C76.1406 20.5898 76.4688 21.2539 77.0156 21.7539C77.5703 22.2539 78.2695 22.5039 79.1133 22.5039C80.418 22.5039 81.4375 22.0312 82.1719 21.0859L83.8359 22.9492C83.3281 23.668 82.6406 24.2305 81.7734 24.6367C80.9062 25.0352 79.9453 25.2344 78.8906 25.2344ZM78.5039 14.8281C77.832 14.8281 77.2852 15.0547 76.8633 15.5078C76.4492 15.9609 76.1836 16.6094 76.0664 17.4531H80.7773V17.1836C80.7617 16.4336 80.5586 15.8555 80.168 15.4492C79.7773 15.0352 79.2227 14.8281 78.5039 14.8281ZM89.7773 18.9883V25H86.2617V7.9375H92.918C94.1992 7.9375 95.3242 8.17188 96.293 8.64062C97.2695 9.10938 98.0195 9.77734 98.543 10.6445C99.0664 11.5039 99.3281 12.4844 99.3281 13.5859C99.3281 15.2578 98.7539 16.5781 97.6055 17.5469C96.4648 18.5078 94.8828 18.9883 92.8594 18.9883H89.7773ZM89.7773 16.1406H92.918C93.8477 16.1406 94.5547 15.9219 95.0391 15.4844C95.5312 15.0469 95.7773 14.4219 95.7773 13.6094C95.7773 12.7734 95.5312 12.0977 95.0391 11.582C94.5469 11.0664 93.8672 10.8008 93 10.7852H89.7773V16.1406ZM115.641 25H112.125V17.6875H105.27V25H101.754V7.9375H105.27V14.8516H112.125V7.9375H115.641V25ZM122.238 18.9883V25H118.723V7.9375H125.379C126.66 7.9375 127.785 8.17188 128.754 8.64062C129.73 9.10938 130.48 9.77734 131.004 10.6445C131.527 11.5039 131.789 12.4844 131.789 13.5859C131.789 15.2578 131.215 16.5781 130.066 17.5469C128.926 18.5078 127.344 18.9883 125.32 18.9883H122.238ZM122.238 16.1406H125.379C126.309 16.1406 127.016 15.9219 127.5 15.4844C127.992 15.0469 128.238 14.4219 128.238 13.6094C128.238 12.7734 127.992 12.0977 127.5 11.582C127.008 11.0664 126.328 10.8008 125.461 10.7852H122.238V16.1406Z" fill="black"/>
<path d="M0 8.5V2L23.5 0V7L16 7.5V29H7.5V8L0 8.5Z" fill="#3249C4"/>
</svg>
