<svg width="290" height="534" viewBox="0 0 290 534" fill="none" xmlns="http://www.w3.org/2000/svg">
<path d="M72.5 154.597H178.984V357.491H72.5V154.597Z" fill="#09A1E5"/>
<path d="M145 116L72.5 154.597L145 193.193H217.5V154.597L145 116Z" fill="#3EC3FF"/>
<path d="M183.516 193.193L217.5 406L290 367.403V193.193H183.516Z" fill="#962B7C"/>
<path d="M145 193.193V270.386L116.68 318.895L145 367.403L217.5 406V193.193H145Z" fill="#CB2E81"/>
<path d="M290 193.193L217.5 154.597L145 193.193L217.5 231.789L290 193.193Z" fill="#FF3187"/>
<path d="M38.5156 270.386L72.5 406L145 367.403V270.386H38.5156Z" fill="#FF9259"/>
<path d="M0 270.386V367.403L72.5 406V270.386H0Z" fill="#FFB24A"/>
<path d="M72.5 231.789L0 270.386L72.5 308.983L145 270.386L72.5 231.789Z" fill="#FFD23B"/>
<circle cx="217" cy="193" r="22" fill="#FBF459"/>
<circle cx="114" cy="338" r="22" fill="#FBF459"/>
<line x1="216.5" y1="1.5299e-07" x2="216.5" y2="184" stroke="#FBF459" stroke-width="7"/>
<line x1="175.5" y1="372" x2="175.5" y2="534" stroke="#FBF459" stroke-width="7"/>
<line x1="112.752" y1="337.97" x2="176.752" y2="374.97" stroke="#FBF459" stroke-width="7"/>
</svg>
