<svg width="1233" height="534" viewBox="0 0 1233 534" fill="none" xmlns="http://www.w3.org/2000/svg">
<rect y="1" width="1233" height="533" fill="url(#paint0_linear)"/>
<path d="M103.025 61.1699H95.3438V82H89.1738V61.1699H81.6328V56.4062H103.025V61.1699ZM100.969 72.3145C100.969 70.416 101.338 68.7285 102.076 67.252C102.814 65.7637 103.875 64.6211 105.258 63.8242C106.641 63.0273 108.264 62.6289 110.127 62.6289C112.975 62.6289 115.219 63.5137 116.859 65.2832C118.5 67.041 119.32 69.4375 119.32 72.4727V72.6836C119.32 75.6484 118.494 78.0039 116.842 79.75C115.201 81.4844 112.975 82.3516 110.162 82.3516C107.455 82.3516 105.281 81.543 103.641 79.9258C102 78.2969 101.115 76.0938 100.986 73.3164L100.969 72.3145ZM106.893 72.6836C106.893 74.4414 107.168 75.7305 107.719 76.5508C108.27 77.3711 109.084 77.7812 110.162 77.7812C112.271 77.7812 113.35 76.1582 113.396 72.9121V72.3145C113.396 68.9043 112.307 67.1992 110.127 67.1992C108.146 67.1992 107.074 68.6699 106.91 71.6113L106.893 72.6836ZM127.371 62.9805L127.564 65.2129C128.877 63.4902 130.688 62.6289 132.996 62.6289C134.977 62.6289 136.453 63.2207 137.426 64.4043C138.41 65.5879 138.92 67.3691 138.955 69.748V82H133.014V69.9941C133.014 69.0332 132.82 68.3301 132.434 67.8848C132.047 67.4277 131.344 67.1992 130.324 67.1992C129.164 67.1992 128.303 67.6562 127.74 68.5703V82H121.816V62.9805H127.371ZM151.453 82.3516C148.535 82.3516 146.174 81.4844 144.369 79.75C142.564 78.0039 141.662 75.7363 141.662 72.9473V72.4551C141.662 70.5098 142.02 68.793 142.734 67.3047C143.461 65.8164 144.516 64.668 145.898 63.8594C147.281 63.0391 148.922 62.6289 150.82 62.6289C153.492 62.6289 155.602 63.4609 157.148 65.125C158.695 66.7773 159.469 69.0859 159.469 72.0508V74.3535H147.691C147.902 75.4199 148.365 76.2578 149.08 76.8672C149.795 77.4766 150.721 77.7812 151.857 77.7812C153.732 77.7812 155.197 77.125 156.252 75.8125L158.959 79.0117C158.221 80.0312 157.172 80.8457 155.812 81.4551C154.465 82.0527 153.012 82.3516 151.453 82.3516ZM150.785 67.1992C149.051 67.1992 148.02 68.3477 147.691 70.6445H153.668V70.1875C153.691 69.2383 153.451 68.5059 152.947 67.9902C152.443 67.4629 151.723 67.1992 150.785 67.1992ZM168.311 73.3164V82H162.141V56.4062H172.354C174.311 56.4062 176.039 56.7695 177.539 57.4961C179.051 58.2109 180.217 59.2363 181.037 60.5723C181.869 61.8965 182.285 63.4023 182.285 65.0898C182.285 67.5859 181.389 69.584 179.596 71.084C177.814 72.5723 175.365 73.3164 172.248 73.3164H168.311ZM168.311 68.5527H172.354C173.549 68.5527 174.457 68.2539 175.078 67.6562C175.711 67.0586 176.027 66.2148 176.027 65.125C176.027 63.9297 175.705 62.9746 175.061 62.2598C174.416 61.5449 173.537 61.1816 172.424 61.1699H168.311V68.5527ZM206.982 82H200.848V71.3125H191.76V82H185.59V56.4062H191.76V66.5664H200.848V56.4062H206.982V82ZM217.072 73.3164V82H210.902V56.4062H221.115C223.072 56.4062 224.801 56.7695 226.301 57.4961C227.812 58.2109 228.979 59.2363 229.799 60.5723C230.631 61.8965 231.047 63.4023 231.047 65.0898C231.047 67.5859 230.15 69.584 228.357 71.084C226.576 72.5723 224.127 73.3164 221.01 73.3164H217.072ZM217.072 68.5527H221.115C222.311 68.5527 223.219 68.2539 223.84 67.6562C224.473 67.0586 224.789 66.2148 224.789 65.125C224.789 63.9297 224.467 62.9746 223.822 62.2598C223.178 61.5449 222.299 61.1816 221.186 61.1699H217.072V68.5527Z" fill="white"/>
<path d="M122.105 180.971L127.65 150.656H139.205L128.945 199H116.859L110.385 171.441L104.043 199H91.9902L81.6973 150.656H93.2852L98.8301 180.971L105.471 150.656H115.365L122.105 180.971ZM159.559 199.664C154.047 199.664 149.587 198.026 146.178 194.75C142.769 191.452 141.064 187.169 141.064 181.9V180.971C141.064 177.296 141.74 174.053 143.09 171.242C144.462 168.431 146.454 166.262 149.066 164.734C151.678 163.185 154.777 162.41 158.363 162.41C163.41 162.41 167.395 163.982 170.316 167.125C173.238 170.246 174.699 174.607 174.699 180.207V184.557H152.453C152.852 186.571 153.726 188.154 155.076 189.305C156.426 190.456 158.175 191.031 160.322 191.031C163.864 191.031 166.631 189.792 168.623 187.312L173.736 193.355C172.342 195.281 170.361 196.82 167.793 197.971C165.247 199.1 162.503 199.664 159.559 199.664ZM158.297 171.043C155.021 171.043 153.073 173.212 152.453 177.551H163.742V176.688C163.786 174.895 163.333 173.511 162.381 172.537C161.429 171.541 160.068 171.043 158.297 171.043ZM212.584 181.336C212.584 187.224 211.367 191.751 208.932 194.916C206.497 198.081 203.066 199.664 198.639 199.664C194.986 199.664 192.042 198.214 189.807 195.314L189.342 199H179.314V148H190.504V165.963C192.585 163.594 195.274 162.41 198.572 162.41C203.044 162.41 206.497 164.015 208.932 167.225C211.367 170.434 212.584 174.95 212.584 180.771V181.336ZM201.361 180.639C201.361 177.186 200.896 174.729 199.967 173.268C199.059 171.785 197.654 171.043 195.75 171.043C193.227 171.043 191.478 172.006 190.504 173.932V188.209C191.456 190.113 193.227 191.064 195.816 191.064C198.451 191.064 200.122 189.781 200.83 187.213C201.184 185.951 201.361 183.76 201.361 180.639ZM239.412 182.498H219.457V173.832H239.412V182.498ZM250.635 199V170.844H245.422V163.074H250.635V160.219C250.635 156.124 251.841 152.947 254.254 150.689C256.667 148.432 260.053 147.303 264.414 147.303C266.008 147.303 267.757 147.535 269.66 148L269.693 156.234C269.007 156.035 268.089 155.936 266.938 155.936C263.551 155.936 261.857 157.396 261.857 160.318V163.074H268.863V170.844H261.857V199H250.635ZM294.529 173.201L290.844 172.936C287.324 172.936 285.066 174.042 284.07 176.256V199H272.881V163.074H283.373L283.738 167.689C285.62 164.17 288.243 162.41 291.607 162.41C292.803 162.41 293.843 162.543 294.729 162.809L294.529 173.201ZM317.805 199C317.406 198.27 317.052 197.196 316.742 195.779C314.684 198.369 311.806 199.664 308.109 199.664C304.723 199.664 301.845 198.646 299.477 196.609C297.108 194.551 295.924 191.972 295.924 188.873C295.924 184.977 297.363 182.033 300.24 180.041C303.118 178.049 307.301 177.053 312.791 177.053H316.244V175.16C316.244 171.862 314.816 170.213 311.961 170.213C309.305 170.213 307.977 171.519 307.977 174.131H296.787C296.787 170.656 298.259 167.833 301.203 165.664C304.169 163.495 307.943 162.41 312.525 162.41C317.107 162.41 320.727 163.528 323.383 165.764C326.039 167.999 327.4 171.065 327.467 174.961V190.865C327.511 194.163 328.02 196.687 328.994 198.436V199H317.805ZM310.799 191.695C312.193 191.695 313.344 191.396 314.252 190.799C315.182 190.201 315.846 189.526 316.244 188.773V183.029H312.99C309.094 183.029 307.146 184.778 307.146 188.275C307.146 189.294 307.49 190.124 308.176 190.766C308.862 191.385 309.736 191.695 310.799 191.695ZM344.268 163.074L344.633 167.291C347.178 164.037 350.598 162.41 354.893 162.41C359.43 162.41 362.496 164.214 364.09 167.822C366.525 164.214 370.044 162.41 374.648 162.41C381.931 162.41 385.672 166.815 385.871 175.625V199H374.648V176.322C374.648 174.485 374.339 173.146 373.719 172.305C373.099 171.464 371.97 171.043 370.332 171.043C368.118 171.043 366.469 172.028 365.385 173.998L365.418 174.463V199H354.195V176.389C354.195 174.507 353.896 173.146 353.299 172.305C352.701 171.464 351.561 171.043 349.879 171.043C347.732 171.043 346.094 172.028 344.965 173.998V199H333.775V163.074H344.268ZM409.645 199.664C404.133 199.664 399.673 198.026 396.264 194.75C392.855 191.452 391.15 187.169 391.15 181.9V180.971C391.15 177.296 391.826 174.053 393.176 171.242C394.548 168.431 396.54 166.262 399.152 164.734C401.764 163.185 404.863 162.41 408.449 162.41C413.496 162.41 417.48 163.982 420.402 167.125C423.324 170.246 424.785 174.607 424.785 180.207V184.557H402.539C402.938 186.571 403.812 188.154 405.162 189.305C406.512 190.456 408.261 191.031 410.408 191.031C413.95 191.031 416.717 189.792 418.709 187.312L423.822 193.355C422.428 195.281 420.447 196.82 417.879 197.971C415.333 199.1 412.589 199.664 409.645 199.664ZM408.383 171.043C405.107 171.043 403.159 173.212 402.539 177.551H413.828V176.688C413.872 174.895 413.419 173.511 412.467 172.537C411.515 171.541 410.154 171.043 408.383 171.043ZM460.346 184.258L463.965 163.074H474.689L466.223 199H456.76L450.816 177.684L444.84 199H435.377L426.91 163.074H437.635L441.188 184.756L446.898 163.074H454.701L460.346 184.258ZM477.312 180.705C477.312 177.119 478.01 173.932 479.404 171.143C480.799 168.331 482.802 166.173 485.414 164.668C488.026 163.163 491.092 162.41 494.611 162.41C499.99 162.41 504.229 164.081 507.328 167.424C510.427 170.744 511.977 175.271 511.977 181.004V181.402C511.977 187.003 510.416 191.452 507.295 194.75C504.196 198.026 499.99 199.664 494.678 199.664C489.564 199.664 485.458 198.137 482.359 195.082C479.26 192.005 477.589 187.844 477.346 182.598L477.312 180.705ZM488.502 181.402C488.502 184.723 489.022 187.158 490.062 188.707C491.103 190.257 492.641 191.031 494.678 191.031C498.662 191.031 500.699 187.965 500.787 181.834V180.705C500.787 174.264 498.729 171.043 494.611 171.043C490.87 171.043 488.845 173.821 488.535 179.377L488.502 181.402ZM538.639 173.201L534.953 172.936C531.434 172.936 529.176 174.042 528.18 176.256V199H516.99V163.074H527.482L527.848 167.689C529.729 164.17 532.352 162.41 535.717 162.41C536.912 162.41 537.952 162.543 538.838 162.809L538.639 173.201ZM557.1 185.619L553.945 188.773V199H542.756V147.967H553.945V175.061L555.074 173.566L563.508 163.074H576.922L564.338 177.85L577.752 199H564.936L557.1 185.619ZM115.166 245.258L118.785 224.074H129.51L121.043 260H111.58L105.637 238.684L99.6602 260H90.1973L81.7305 224.074H92.4551L96.0078 245.756L101.719 224.074H109.521L115.166 245.258ZM145.348 260H134.125V224.074H145.348V260ZM133.461 214.811C133.461 213.217 134.036 211.911 135.188 210.893C136.339 209.874 137.833 209.365 139.67 209.365C141.507 209.365 143.001 209.874 144.152 210.893C145.303 211.911 145.879 213.217 145.879 214.811C145.879 216.404 145.303 217.71 144.152 218.729C143.001 219.747 141.507 220.256 139.67 220.256C137.833 220.256 136.339 219.747 135.188 218.729C134.036 217.71 133.461 216.404 133.461 214.811ZM165.303 215.143V224.074H171.213V231.844H165.303V248.279C165.303 249.63 165.546 250.57 166.033 251.102C166.52 251.633 167.483 251.898 168.922 251.898C170.029 251.898 170.958 251.832 171.711 251.699V259.701C169.697 260.343 167.594 260.664 165.402 260.664C161.551 260.664 158.706 259.757 156.869 257.941C155.032 256.126 154.113 253.37 154.113 249.674V231.844H149.531V224.074H154.113V215.143H165.303ZM186.586 227.926C188.977 224.915 192.031 223.41 195.75 223.41C199.712 223.41 202.701 224.583 204.715 226.93C206.729 229.276 207.758 232.74 207.803 237.322V260H196.58V237.588C196.58 235.684 196.193 234.29 195.418 233.404C194.643 232.497 193.326 232.043 191.467 232.043C189.165 232.043 187.538 232.773 186.586 234.234V260H175.396V209H186.586V227.926ZM229.65 241.771C229.65 238.141 230.248 234.932 231.443 232.143C232.639 229.354 234.354 227.206 236.59 225.701C238.826 224.174 241.426 223.41 244.393 223.41C248.133 223.41 251.055 224.672 253.158 227.195L253.557 224.074H263.717V258.639C263.717 261.804 262.975 264.549 261.492 266.873C260.031 269.219 257.906 271.012 255.117 272.252C252.328 273.514 249.096 274.145 245.422 274.145C242.788 274.145 240.231 273.646 237.752 272.65C235.295 271.654 233.413 270.359 232.107 268.766L236.789 262.191C238.87 264.648 241.615 265.877 245.023 265.877C249.982 265.877 252.461 263.331 252.461 258.24V257.111C250.314 259.48 247.602 260.664 244.326 260.664C239.943 260.664 236.402 258.993 233.701 255.65C231.001 252.286 229.65 247.792 229.65 242.17V241.771ZM240.873 242.469C240.873 245.413 241.426 247.748 242.533 249.475C243.64 251.179 245.189 252.031 247.182 252.031C249.594 252.031 251.354 251.223 252.461 249.607V234.5C251.376 232.862 249.639 232.043 247.248 232.043C245.256 232.043 243.695 232.939 242.566 234.732C241.438 236.503 240.873 239.082 240.873 242.469ZM268.664 241.705C268.664 238.119 269.361 234.932 270.756 232.143C272.15 229.331 274.154 227.173 276.766 225.668C279.378 224.163 282.443 223.41 285.963 223.41C291.342 223.41 295.581 225.081 298.68 228.424C301.779 231.744 303.328 236.271 303.328 242.004V242.402C303.328 248.003 301.768 252.452 298.646 255.75C295.548 259.026 291.342 260.664 286.029 260.664C280.916 260.664 276.81 259.137 273.711 256.082C270.612 253.005 268.941 248.844 268.697 243.598L268.664 241.705ZM279.854 242.402C279.854 245.723 280.374 248.158 281.414 249.707C282.454 251.257 283.993 252.031 286.029 252.031C290.014 252.031 292.05 248.965 292.139 242.834V241.705C292.139 235.264 290.08 232.043 285.963 232.043C282.222 232.043 280.197 234.821 279.887 240.377L279.854 242.402ZM306.848 241.705C306.848 238.119 307.545 234.932 308.939 232.143C310.334 229.331 312.337 227.173 314.949 225.668C317.561 224.163 320.627 223.41 324.146 223.41C329.525 223.41 333.764 225.081 336.863 228.424C339.962 231.744 341.512 236.271 341.512 242.004V242.402C341.512 248.003 339.951 252.452 336.83 255.75C333.731 259.026 329.525 260.664 324.213 260.664C319.1 260.664 314.993 259.137 311.895 256.082C308.796 253.005 307.124 248.844 306.881 243.598L306.848 241.705ZM318.037 242.402C318.037 245.723 318.557 248.158 319.598 249.707C320.638 251.257 322.176 252.031 324.213 252.031C328.197 252.031 330.234 248.965 330.322 242.834V241.705C330.322 235.264 328.264 232.043 324.146 232.043C320.406 232.043 318.38 234.821 318.07 240.377L318.037 242.402ZM345.031 241.771C345.031 236.083 346.26 231.6 348.717 228.324C351.174 225.048 354.605 223.41 359.01 223.41C362.219 223.41 364.92 224.672 367.111 227.195V209H378.334V260H368.273L367.709 256.148C365.407 259.159 362.485 260.664 358.943 260.664C354.671 260.664 351.285 259.026 348.783 255.75C346.282 252.474 345.031 247.814 345.031 241.771ZM356.221 242.469C356.221 248.844 358.08 252.031 361.799 252.031C364.278 252.031 366.049 250.991 367.111 248.91V235.23C366.093 233.105 364.344 232.043 361.865 232.043C358.412 232.043 356.542 234.832 356.254 240.41L356.221 242.469ZM82.7266 302.771C82.7266 297.083 83.9551 292.6 86.4121 289.324C88.8691 286.048 92.3001 284.41 96.7051 284.41C99.9147 284.41 102.615 285.672 104.807 288.195V270H116.029V321H105.969L105.404 317.148C103.102 320.159 100.18 321.664 96.6387 321.664C92.3665 321.664 88.9798 320.026 86.4785 316.75C83.9772 313.474 82.7266 308.814 82.7266 302.771ZM93.916 303.469C93.916 309.844 95.7754 313.031 99.4941 313.031C101.973 313.031 103.744 311.991 104.807 309.91V296.23C103.788 294.105 102.04 293.043 99.5605 293.043C96.1074 293.043 94.237 295.832 93.9492 301.41L93.916 303.469ZM120.977 302.705C120.977 299.119 121.674 295.932 123.068 293.143C124.463 290.331 126.466 288.173 129.078 286.668C131.69 285.163 134.756 284.41 138.275 284.41C143.654 284.41 147.893 286.081 150.992 289.424C154.091 292.744 155.641 297.271 155.641 303.004V303.402C155.641 309.003 154.08 313.452 150.959 316.75C147.86 320.026 143.654 321.664 138.342 321.664C133.229 321.664 129.122 320.137 126.023 317.082C122.924 314.005 121.253 309.844 121.01 304.598L120.977 302.705ZM132.166 303.402C132.166 306.723 132.686 309.158 133.727 310.707C134.767 312.257 136.305 313.031 138.342 313.031C142.326 313.031 144.363 309.965 144.451 303.834V302.705C144.451 296.264 142.393 293.043 138.275 293.043C134.535 293.043 132.509 295.821 132.199 301.377L132.166 303.402ZM175.762 313.031C177.333 313.031 178.551 312.611 179.414 311.77C180.277 310.906 180.698 309.711 180.676 308.184H191.168C191.168 312.124 189.751 315.355 186.918 317.879C184.107 320.402 180.477 321.664 176.027 321.664C170.803 321.664 166.686 320.026 163.676 316.75C160.665 313.474 159.16 308.936 159.16 303.137V302.672C159.16 299.042 159.824 295.843 161.152 293.076C162.503 290.287 164.439 288.151 166.963 286.668C169.486 285.163 172.475 284.41 175.928 284.41C180.598 284.41 184.306 285.705 187.051 288.295C189.796 290.885 191.168 294.393 191.168 298.82H180.676C180.676 296.961 180.222 295.533 179.314 294.537C178.407 293.541 177.189 293.043 175.662 293.043C172.762 293.043 171.069 294.891 170.582 298.588C170.427 299.761 170.35 301.377 170.35 303.436C170.35 307.044 170.781 309.545 171.645 310.939C172.508 312.334 173.88 313.031 175.762 313.031ZM217.299 317.115C214.93 320.148 211.732 321.664 207.703 321.664C203.763 321.664 200.775 320.524 198.738 318.244C196.724 315.942 195.717 312.644 195.717 308.35V285.074H206.906V308.416C206.906 311.493 208.4 313.031 211.389 313.031C213.956 313.031 215.783 312.113 216.867 310.275V285.074H228.123V321H217.631L217.299 317.115ZM244.857 285.074L245.223 289.291C247.768 286.037 251.188 284.41 255.482 284.41C260.02 284.41 263.086 286.214 264.68 289.822C267.115 286.214 270.634 284.41 275.238 284.41C282.521 284.41 286.262 288.815 286.461 297.625V321H275.238V298.322C275.238 296.485 274.928 295.146 274.309 294.305C273.689 293.464 272.56 293.043 270.922 293.043C268.708 293.043 267.059 294.028 265.975 295.998L266.008 296.463V321H254.785V298.389C254.785 296.507 254.486 295.146 253.889 294.305C253.291 293.464 252.151 293.043 250.469 293.043C248.322 293.043 246.684 294.028 245.555 295.998V321H234.365V285.074H244.857ZM310.234 321.664C304.723 321.664 300.262 320.026 296.854 316.75C293.445 313.452 291.74 309.169 291.74 303.9V302.971C291.74 299.296 292.415 296.053 293.766 293.242C295.138 290.431 297.13 288.262 299.742 286.734C302.354 285.185 305.453 284.41 309.039 284.41C314.086 284.41 318.07 285.982 320.992 289.125C323.914 292.246 325.375 296.607 325.375 302.207V306.557H303.129C303.527 308.571 304.402 310.154 305.752 311.305C307.102 312.456 308.851 313.031 310.998 313.031C314.54 313.031 317.307 311.792 319.299 309.312L324.412 315.355C323.018 317.281 321.036 318.82 318.469 319.971C315.923 321.1 313.178 321.664 310.234 321.664ZM308.973 293.043C305.697 293.043 303.749 295.212 303.129 299.551H314.418V298.688C314.462 296.895 314.008 295.511 313.057 294.537C312.105 293.541 310.743 293.043 308.973 293.043ZM340.184 285.074L340.549 289.291C343.028 286.037 346.448 284.41 350.809 284.41C354.549 284.41 357.339 285.528 359.176 287.764C361.035 289.999 361.998 293.364 362.064 297.857V321H350.842V298.322C350.842 296.507 350.477 295.179 349.746 294.338C349.016 293.475 347.688 293.043 345.762 293.043C343.57 293.043 341.943 293.906 340.881 295.633V321H329.691V285.074H340.184ZM381.322 276.143V285.074H387.232V292.844H381.322V309.279C381.322 310.63 381.566 311.57 382.053 312.102C382.54 312.633 383.503 312.898 384.941 312.898C386.048 312.898 386.978 312.832 387.73 312.699V320.701C385.716 321.343 383.613 321.664 381.422 321.664C377.57 321.664 374.726 320.757 372.889 318.941C371.051 317.126 370.133 314.37 370.133 310.674V292.844H365.551V285.074H370.133V276.143H381.322ZM411.902 321C411.504 320.27 411.15 319.196 410.84 317.779C408.781 320.369 405.904 321.664 402.207 321.664C398.82 321.664 395.943 320.646 393.574 318.609C391.206 316.551 390.021 313.972 390.021 310.873C390.021 306.977 391.46 304.033 394.338 302.041C397.215 300.049 401.399 299.053 406.889 299.053H410.342V297.16C410.342 293.862 408.914 292.213 406.059 292.213C403.402 292.213 402.074 293.519 402.074 296.131H390.885C390.885 292.656 392.357 289.833 395.301 287.664C398.267 285.495 402.041 284.41 406.623 284.41C411.205 284.41 414.824 285.528 417.48 287.764C420.137 289.999 421.498 293.065 421.564 296.961V312.865C421.609 316.163 422.118 318.687 423.092 320.436V321H411.902ZM404.896 313.695C406.291 313.695 407.442 313.396 408.35 312.799C409.279 312.201 409.943 311.526 410.342 310.773V305.029H407.088C403.192 305.029 401.244 306.778 401.244 310.275C401.244 311.294 401.587 312.124 402.273 312.766C402.96 313.385 403.834 313.695 404.896 313.695ZM440.822 276.143V285.074H446.732V292.844H440.822V309.279C440.822 310.63 441.066 311.57 441.553 312.102C442.04 312.633 443.003 312.898 444.441 312.898C445.548 312.898 446.478 312.832 447.23 312.699V320.701C445.216 321.343 443.113 321.664 440.922 321.664C437.07 321.664 434.226 320.757 432.389 318.941C430.551 317.126 429.633 314.37 429.633 310.674V292.844H425.051V285.074H429.633V276.143H440.822ZM462.969 321H451.746V285.074H462.969V321ZM451.082 275.811C451.082 274.217 451.658 272.911 452.809 271.893C453.96 270.874 455.454 270.365 457.291 270.365C459.128 270.365 460.622 270.874 461.773 271.893C462.924 272.911 463.5 274.217 463.5 275.811C463.5 277.404 462.924 278.71 461.773 279.729C460.622 280.747 459.128 281.256 457.291 281.256C455.454 281.256 453.96 280.747 452.809 279.729C451.658 278.71 451.082 277.404 451.082 275.811ZM468.48 302.705C468.48 299.119 469.178 295.932 470.572 293.143C471.967 290.331 473.97 288.173 476.582 286.668C479.194 285.163 482.26 284.41 485.779 284.41C491.158 284.41 495.397 286.081 498.496 289.424C501.595 292.744 503.145 297.271 503.145 303.004V303.402C503.145 309.003 501.584 313.452 498.463 316.75C495.364 320.026 491.158 321.664 485.846 321.664C480.732 321.664 476.626 320.137 473.527 317.082C470.428 314.005 468.757 309.844 468.514 304.598L468.48 302.705ZM479.67 303.402C479.67 306.723 480.19 309.158 481.23 310.707C482.271 312.257 483.809 313.031 485.846 313.031C489.83 313.031 491.867 309.965 491.955 303.834V302.705C491.955 296.264 489.896 293.043 485.779 293.043C482.038 293.043 480.013 295.821 479.703 301.377L479.67 303.402ZM518.352 285.074L518.717 289.291C521.196 286.037 524.616 284.41 528.977 284.41C532.717 284.41 535.507 285.528 537.344 287.764C539.203 289.999 540.166 293.364 540.232 297.857V321H529.01V298.322C529.01 296.507 528.645 295.179 527.914 294.338C527.184 293.475 525.855 293.043 523.93 293.043C521.738 293.043 520.111 293.906 519.049 295.633V321H507.859V285.074H518.352Z" fill="white"/>
<path d="M913.5 154.597H1019.98V357.491H913.5V154.597Z" fill="#09A1E5"/>
<path d="M986 116L913.5 154.597L986 193.193H1058.5V154.597L986 116Z" fill="#3EC3FF"/>
<path d="M1024.52 193.193L1058.5 406L1131 367.403V193.193H1024.52Z" fill="#962B7C"/>
<path d="M986 193.193V270.386L957.68 318.895L986 367.403L1058.5 406V193.193H986Z" fill="#CB2E81"/>
<path d="M1131 193.193L1058.5 154.597L986 193.193L1058.5 231.789L1131 193.193Z" fill="#FF3187"/>
<path d="M879.516 270.386L913.5 406L986 367.403V270.386H879.516Z" fill="#FF9259"/>
<path d="M841 270.386V367.403L913.5 406V270.386H841Z" fill="#FFB24A"/>
<path d="M913.5 231.789L841 270.386L913.5 308.983L986 270.386L913.5 231.789Z" fill="#FFD23B"/>
<circle cx="1058" cy="193" r="22" fill="#FBF459"/>
<circle cx="955" cy="338" r="22" fill="#FBF459"/>
<line x1="1057.5" y1="1.5299e-07" x2="1057.5" y2="184" stroke="#FBF459" stroke-width="7"/>
<line x1="1016.5" y1="372" x2="1016.5" y2="534" stroke="#FBF459" stroke-width="7"/>
<line x1="953.752" y1="337.97" x2="1017.75" y2="374.97" stroke="#FBF459" stroke-width="7"/>
<rect x="81" y="378" width="221" height="63" rx="31.5" fill="white"/>
<path d="M142.004 411.426H138.699V418H135.734V400.938H141.734C143.703 400.938 145.223 401.379 146.293 402.262C147.363 403.145 147.898 404.422 147.898 406.094C147.898 407.234 147.621 408.191 147.066 408.965C146.52 409.73 145.754 410.32 144.77 410.734L148.602 417.848V418H145.426L142.004 411.426ZM138.699 409.047H141.746C142.746 409.047 143.527 408.797 144.09 408.297C144.652 407.789 144.934 407.098 144.934 406.223C144.934 405.309 144.672 404.602 144.148 404.102C143.633 403.602 142.859 403.344 141.828 403.328H138.699V409.047ZM156.02 418.234C154.215 418.234 152.75 417.668 151.625 416.535C150.508 415.395 149.949 413.879 149.949 411.988V411.637C149.949 410.371 150.191 409.242 150.676 408.25C151.168 407.25 151.855 406.473 152.738 405.918C153.621 405.363 154.605 405.086 155.691 405.086C157.418 405.086 158.75 405.637 159.688 406.738C160.633 407.84 161.105 409.398 161.105 411.414V412.562H152.82C152.906 413.609 153.254 414.438 153.863 415.047C154.48 415.656 155.254 415.961 156.184 415.961C157.488 415.961 158.551 415.434 159.371 414.379L160.906 415.844C160.398 416.602 159.719 417.191 158.867 417.613C158.023 418.027 157.074 418.234 156.02 418.234ZM155.68 407.371C154.898 407.371 154.266 407.645 153.781 408.191C153.305 408.738 153 409.5 152.867 410.477H158.293V410.266C158.23 409.312 157.977 408.594 157.531 408.109C157.086 407.617 156.469 407.371 155.68 407.371ZM170.902 418C170.777 417.758 170.668 417.363 170.574 416.816C169.668 417.762 168.559 418.234 167.246 418.234C165.973 418.234 164.934 417.871 164.129 417.145C163.324 416.418 162.922 415.52 162.922 414.449C162.922 413.098 163.422 412.062 164.422 411.344C165.43 410.617 166.867 410.254 168.734 410.254H170.48V409.422C170.48 408.766 170.297 408.242 169.93 407.852C169.562 407.453 169.004 407.254 168.254 407.254C167.605 407.254 167.074 407.418 166.66 407.746C166.246 408.066 166.039 408.477 166.039 408.977H163.191C163.191 408.281 163.422 407.633 163.883 407.031C164.344 406.422 164.969 405.945 165.758 405.602C166.555 405.258 167.441 405.086 168.418 405.086C169.902 405.086 171.086 405.461 171.969 406.211C172.852 406.953 173.305 408 173.328 409.352V415.07C173.328 416.211 173.488 417.121 173.809 417.801V418H170.902ZM167.773 415.949C168.336 415.949 168.863 415.812 169.355 415.539C169.855 415.266 170.23 414.898 170.48 414.438V412.047H168.945C167.891 412.047 167.098 412.23 166.566 412.598C166.035 412.965 165.77 413.484 165.77 414.156C165.77 414.703 165.949 415.141 166.309 415.469C166.676 415.789 167.164 415.949 167.773 415.949ZM175.777 411.566C175.777 409.613 176.23 408.047 177.137 406.867C178.043 405.68 179.258 405.086 180.781 405.086C182.125 405.086 183.211 405.555 184.039 406.492V400H186.887V418H184.309L184.168 416.688C183.316 417.719 182.18 418.234 180.758 418.234C179.273 418.234 178.07 417.637 177.148 416.441C176.234 415.246 175.777 413.621 175.777 411.566ZM178.625 411.812C178.625 413.102 178.871 414.109 179.363 414.836C179.863 415.555 180.57 415.914 181.484 415.914C182.648 415.914 183.5 415.395 184.039 414.355V408.941C183.516 407.926 182.672 407.418 181.508 407.418C180.586 407.418 179.875 407.785 179.375 408.52C178.875 409.246 178.625 410.344 178.625 411.812ZM195.301 411.566C195.301 409.613 195.754 408.047 196.66 406.867C197.566 405.68 198.781 405.086 200.305 405.086C201.648 405.086 202.734 405.555 203.562 406.492V400H206.41V418H203.832L203.691 416.688C202.84 417.719 201.703 418.234 200.281 418.234C198.797 418.234 197.594 417.637 196.672 416.441C195.758 415.246 195.301 413.621 195.301 411.566ZM198.148 411.812C198.148 413.102 198.395 414.109 198.887 414.836C199.387 415.555 200.094 415.914 201.008 415.914C202.172 415.914 203.023 415.395 203.562 414.355V408.941C203.039 407.926 202.195 407.418 201.031 407.418C200.109 407.418 199.398 407.785 198.898 408.52C198.398 409.246 198.148 410.344 198.148 411.812ZM208.848 411.543C208.848 410.301 209.094 409.184 209.586 408.191C210.078 407.191 210.77 406.426 211.66 405.895C212.551 405.355 213.574 405.086 214.73 405.086C216.441 405.086 217.828 405.637 218.891 406.738C219.961 407.84 220.539 409.301 220.625 411.121L220.637 411.789C220.637 413.039 220.395 414.156 219.91 415.141C219.434 416.125 218.746 416.887 217.848 417.426C216.957 417.965 215.926 418.234 214.754 418.234C212.965 418.234 211.531 417.641 210.453 416.453C209.383 415.258 208.848 413.668 208.848 411.684V411.543ZM211.695 411.789C211.695 413.094 211.965 414.117 212.504 414.859C213.043 415.594 213.793 415.961 214.754 415.961C215.715 415.961 216.461 415.586 216.992 414.836C217.531 414.086 217.801 412.988 217.801 411.543C217.801 410.262 217.523 409.246 216.969 408.496C216.422 407.746 215.676 407.371 214.73 407.371C213.801 407.371 213.062 407.742 212.516 408.484C211.969 409.219 211.695 410.32 211.695 411.789ZM228.254 415.961C228.965 415.961 229.555 415.754 230.023 415.34C230.492 414.926 230.742 414.414 230.773 413.805H233.457C233.426 414.594 233.18 415.332 232.719 416.02C232.258 416.699 231.633 417.238 230.844 417.637C230.055 418.035 229.203 418.234 228.289 418.234C226.516 418.234 225.109 417.66 224.07 416.512C223.031 415.363 222.512 413.777 222.512 411.754V411.461C222.512 409.531 223.027 407.988 224.059 406.832C225.09 405.668 226.496 405.086 228.277 405.086C229.785 405.086 231.012 405.527 231.957 406.41C232.91 407.285 233.41 408.438 233.457 409.867H230.773C230.742 409.141 230.492 408.543 230.023 408.074C229.562 407.605 228.973 407.371 228.254 407.371C227.332 407.371 226.621 407.707 226.121 408.379C225.621 409.043 225.367 410.055 225.359 411.414V411.871C225.359 413.246 225.605 414.273 226.098 414.953C226.598 415.625 227.316 415.961 228.254 415.961ZM242.715 414.555C242.715 414.047 242.504 413.66 242.082 413.395C241.668 413.129 240.977 412.895 240.008 412.691C239.039 412.488 238.23 412.23 237.582 411.918C236.16 411.23 235.449 410.234 235.449 408.93C235.449 407.836 235.91 406.922 236.832 406.188C237.754 405.453 238.926 405.086 240.348 405.086C241.863 405.086 243.086 405.461 244.016 406.211C244.953 406.961 245.422 407.934 245.422 409.129H242.574C242.574 408.582 242.371 408.129 241.965 407.77C241.559 407.402 241.02 407.219 240.348 407.219C239.723 407.219 239.211 407.363 238.812 407.652C238.422 407.941 238.227 408.328 238.227 408.812C238.227 409.25 238.41 409.59 238.777 409.832C239.145 410.074 239.887 410.32 241.004 410.57C242.121 410.812 242.996 411.105 243.629 411.449C244.27 411.785 244.742 412.191 245.047 412.668C245.359 413.145 245.516 413.723 245.516 414.402C245.516 415.543 245.043 416.469 244.098 417.18C243.152 417.883 241.914 418.234 240.383 418.234C239.344 418.234 238.418 418.047 237.605 417.672C236.793 417.297 236.16 416.781 235.707 416.125C235.254 415.469 235.027 414.762 235.027 414.004H237.793C237.832 414.676 238.086 415.195 238.555 415.562C239.023 415.922 239.645 416.102 240.418 416.102C241.168 416.102 241.738 415.961 242.129 415.68C242.52 415.391 242.715 415.016 242.715 414.555Z" fill="#383AB4"/>
<defs>
<linearGradient id="paint0_linear" x1="616.5" y1="1" x2="616.5" y2="534" gradientUnits="userSpaceOnUse">
<stop stop-color="#3774F0"/>
<stop offset="1" stop-color="#7723F5"/>
</linearGradient>
</defs>
</svg>
