<svg width="3997" height="1294" viewBox="0 0 3997 1294" fill="none" xmlns="http://www.w3.org/2000/svg">
<path d="M2367.22 656.963L3269.4 382.92L3358.91 1001.71C3164.84 998.227 2839.38 993.668 2580.74 973.891C2312.63 953.39 2231.69 940.211 2201.79 832.686C2175.94 739.752 2287.95 683.391 2367.22 656.963Z" fill="#232531"/>
<path d="M3478.54 995.46C3764.88 958.158 3978.38 784.893 3955.41 608.46C3932.44 432.027 3681.69 319.239 3395.35 356.54C3109.01 393.842 2895.51 567.108 2918.48 743.54C2941.46 919.973 3192.2 1032.76 3478.54 995.46Z" fill="#8993BE"/>
<path fill-rule="evenodd" clip-rule="evenodd" d="M3059.25 865.228L3116.55 575.079H3249.04C3306.34 578.662 3334.99 607.316 3334.99 657.469C3334.99 743.439 3266.95 793.588 3206.07 790.005H3141.61L3127.29 865.228H3059.25ZM3155.93 736.276L3173.84 628.811H3220.39C3245.46 628.811 3263.36 639.557 3263.36 661.048C3259.79 721.947 3231.14 732.693 3198.91 736.276H3155.94H3155.93ZM3321.67 790.005L3378.97 499.859H3447.01L3432.69 575.079H3497.14C3554.44 578.662 3575.93 607.316 3568.77 643.14L3543.7 790.005H3472.08L3497.15 657.469C3500.73 639.557 3500.73 628.811 3475.66 628.811H3421.94L3389.72 790.005H3321.67V790.005ZM3539.11 865.228L3596.41 575.079H3728.91C3786.21 578.662 3814.86 607.316 3814.86 657.469C3814.86 743.439 3746.82 793.588 3685.94 790.005H3621.48L3607.15 865.228H3539.11V865.228ZM3635.8 736.276L3653.71 628.811H3700.26C3725.33 628.811 3743.23 639.557 3743.23 661.048C3739.66 721.947 3711.01 732.693 3678.78 736.276H3635.8H3635.8Z" fill="#232531"/>
<path d="M2395.54 752.26L2390.49 781.975H2315.33L2320.39 752.26H2395.54ZM2339.4 724.923H2380.39L2363.01 829.668C2362.77 831.253 2362.82 832.59 2363.16 833.679C2363.51 834.719 2364.2 835.512 2365.24 836.057C2366.33 836.552 2367.77 836.799 2369.55 836.799C2370.74 836.799 2372.2 836.651 2373.93 836.354C2375.66 836.007 2376.98 835.759 2377.87 835.611L2379.06 864.434C2376.98 865.029 2374.18 865.697 2370.66 866.44C2367.2 867.232 2363.16 867.752 2358.56 868C2348.95 868.446 2341.13 867.431 2335.09 864.954C2329.1 862.478 2324.94 858.615 2322.61 853.365C2320.34 848.066 2319.94 841.455 2321.42 833.531L2339.4 724.923Z" fill="#CAD4FE"/>
<path d="M2474.06 871.37C2456.73 871.37 2442.45 867.937 2431.22 861.073C2420.06 854.14 2412.23 844.502 2407.72 832.161C2403.22 819.75 2402.32 805.363 2405.02 789C2407.72 772.637 2413.37 758.284 2421.97 745.943C2430.56 733.532 2441.62 723.894 2455.13 717.03C2468.65 710.097 2484.11 706.63 2501.51 706.63C2518.77 706.63 2532.98 710.097 2544.14 717.03C2555.36 723.894 2563.23 733.532 2567.74 745.943C2572.31 758.284 2573.25 772.637 2570.54 789C2567.84 805.363 2562.16 819.75 2553.49 832.161C2544.83 844.502 2533.74 854.14 2520.22 861.073C2506.77 867.937 2491.39 871.37 2474.06 871.37ZM2481.13 828.937C2486.12 828.937 2490.66 827.307 2494.75 824.048C2498.91 820.79 2502.44 816.144 2505.35 810.112C2508.33 804.08 2510.52 796.904 2511.9 788.584C2513.29 780.194 2513.5 773.018 2512.53 767.055C2511.56 761.023 2509.55 756.378 2506.5 753.119C2503.45 749.86 2499.43 748.231 2494.44 748.231C2489.45 748.231 2484.87 749.86 2480.71 753.119C2476.55 756.378 2473.02 761.023 2470.11 767.055C2467.19 773.018 2465.05 780.194 2463.66 788.584C2462.27 796.904 2462.03 804.08 2462.93 810.112C2463.9 816.144 2465.91 820.79 2468.96 824.048C2472.08 827.307 2476.14 828.937 2481.13 828.937Z" fill="#CAD4FE"/>
<path d="M2651.13 762.416L2634.02 865.111H2568.42L2598.84 682.542H2661.11L2655.4 717.249H2657.31C2663.09 705.601 2671.53 696.528 2682.62 690.03C2693.79 683.453 2706.1 680.165 2719.57 680.165C2732.48 680.165 2743.22 683.097 2751.77 688.96C2760.33 694.824 2766.39 702.907 2769.95 713.208C2773.52 723.509 2774.15 735.316 2771.86 748.628L2752.37 865.111H2686.77L2703.89 762.416C2705.39 753.382 2704.28 746.29 2700.56 741.14C2696.91 735.989 2690.89 733.414 2682.5 733.414C2677.19 733.414 2672.32 734.603 2667.88 736.98C2663.52 739.278 2659.88 742.606 2656.95 746.964C2654.1 751.243 2652.16 756.394 2651.13 762.416Z" fill="#CAD4FE"/>
<path d="M2873.62 869.271C2849.26 869.271 2829.06 864.615 2813.02 855.305C2796.97 845.895 2785.69 832.424 2779.15 814.892C2772.62 797.261 2771.43 776.164 2775.59 751.599C2779.55 728.026 2787.72 707.423 2800.09 689.792C2812.57 672.161 2828.27 658.443 2847.18 648.637C2866.19 638.831 2887.48 633.928 2911.05 633.928C2928.28 633.928 2943.38 636.603 2956.35 641.951C2969.42 647.3 2980.07 655.075 2988.29 665.277C2996.51 675.48 3002.05 687.811 3004.92 702.273C3007.89 716.635 3007.89 732.879 3004.92 751.005L3001.95 770.023H2798.16L2805.29 724.856H2933.63C2934.62 718.319 2933.97 712.574 2931.69 707.621C2929.52 702.57 2926 698.657 2921.15 695.884C2916.4 693.011 2910.65 691.575 2903.92 691.575C2897.19 691.575 2890.85 693.011 2884.91 695.884C2879.06 698.756 2874.06 702.768 2869.9 707.918C2865.84 713.069 2863.12 719.111 2861.74 726.045L2852.82 773.588C2851.64 780.918 2852.08 787.455 2854.16 793.2C2856.24 798.945 2859.85 803.452 2865 806.721C2870.15 809.989 2876.79 811.624 2884.91 811.624C2890.45 811.624 2895.7 810.881 2900.65 809.395C2905.7 807.81 2910.16 805.532 2914.02 802.561C2917.98 799.49 2921.15 795.776 2923.53 791.417H2998.39C2993.04 807.265 2984.57 821.033 2972.99 832.721C2961.5 844.31 2947.34 853.324 2930.51 859.762C2913.77 866.101 2894.81 869.271 2873.62 869.271Z" fill="#CAD4FE"/>
<path d="M1.42045 969L122.159 241.727H436.08C490.057 241.727 535.63 251.552 572.798 271.202C609.967 290.851 636.719 319.142 653.054 356.074C669.389 393.006 673.295 437.276 664.773 488.886C656.25 540.97 637.429 584.885 608.31 620.634C579.427 656.145 542.614 683.134 497.869 701.599C453.362 719.829 403.409 728.943 348.011 728.943H160.511L186.08 575.534H333.807C357.008 575.534 377.367 572.693 394.886 567.011C412.405 561.093 426.61 551.86 437.5 539.312C448.39 526.528 455.492 509.72 458.807 488.886C462.121 468.053 460.464 451.126 453.835 438.105C447.206 424.848 436.198 415.141 420.81 408.986C405.421 402.594 386.364 399.398 363.636 399.398H294.034L198.864 969H1.42045ZM482.955 635.193L609.375 969H394.886L272.727 635.193H482.955Z" fill="#F14523"/>
<path d="M1153.85 469C1155.98 445.562 1150.3 427.215 1136.81 413.957C1123.31 400.463 1100.59 393.716 1068.62 393.716C1048.27 393.716 1031.22 396.083 1017.49 400.818C1003.99 405.553 993.459 412.063 985.884 420.349C978.545 428.635 973.928 438.223 972.034 449.114C969.903 457.636 970.022 465.449 972.389 472.551C974.993 479.417 979.847 485.69 986.949 491.372C994.288 497.054 1003.88 502.144 1015.71 506.642C1027.79 511.14 1042.11 515.165 1058.68 518.716L1115.5 531.5C1154.33 540.023 1186.88 551.268 1213.16 565.236C1239.67 578.967 1260.5 595.302 1275.66 614.241C1290.81 633.181 1300.75 654.369 1305.49 677.807C1310.46 701.244 1310.58 726.812 1305.84 754.511C1297.79 802.333 1279.21 842.816 1250.09 875.96C1220.97 909.104 1182.97 934.317 1136.1 951.599C1089.22 968.882 1035.01 977.523 973.455 977.523C910.481 977.523 856.977 968.171 812.943 949.469C769.146 930.529 737.422 901.647 717.773 862.821C698.36 823.759 693.625 773.924 703.568 713.318H891.068C888.227 735.572 890.595 754.275 898.17 769.426C905.746 784.578 917.938 796.06 934.747 803.872C951.556 811.685 972.508 815.591 997.602 815.591C1018.91 815.591 1037.14 812.987 1052.29 807.778C1067.44 802.57 1079.4 795.349 1088.16 786.116C1096.92 776.884 1102.24 766.348 1104.14 754.511C1106.03 743.621 1104.14 733.915 1098.45 725.392C1092.77 716.869 1082.47 709.175 1067.56 702.31C1052.64 695.444 1032.17 689.17 1006.12 683.489L936.523 667.864C874.733 653.659 828.095 630.222 796.608 597.551C765.121 564.881 753.994 520.136 763.227 463.318C770.803 416.917 789.861 376.434 820.401 341.869C851.177 307.068 890.24 280.08 937.588 260.903C985.173 241.491 1037.85 231.784 1095.61 231.784C1154.33 231.784 1203.45 241.609 1242.99 261.259C1282.76 280.908 1311.29 308.489 1328.57 344C1346.09 379.511 1350.82 421.178 1342.77 469H1153.85Z" fill="#FBC718"/>
<path d="M1628.43 835L1664.65 616.818H1723.45L1709.82 699.915H1710.67C1713.65 694.375 1717.6 689.297 1722.5 684.68C1727.4 679.993 1733.15 676.264 1739.75 673.494C1746.36 670.653 1753.71 669.233 1761.81 669.233C1772.6 669.233 1782.37 672.109 1791.1 677.862C1799.91 683.615 1806.34 692.67 1810.39 705.028C1814.51 717.386 1814.93 733.437 1811.66 753.182C1808.54 772.074 1803 787.734 1795.05 800.163C1787.09 812.592 1777.72 821.861 1766.92 827.969C1756.13 834.077 1744.9 837.131 1733.26 837.131C1725.59 837.131 1718.94 835.888 1713.33 833.402C1707.79 830.845 1703.28 827.401 1699.8 823.068C1696.39 818.665 1694.05 813.693 1692.77 808.153H1691.07L1686.81 835H1628.43ZM1699.59 753.182C1698.31 761.136 1698.24 768.026 1699.38 773.849C1700.51 779.602 1702.75 784.077 1706.09 787.273C1709.43 790.398 1713.8 791.96 1719.19 791.96C1724.59 791.96 1729.46 790.433 1733.79 787.379C1738.12 784.254 1741.78 779.815 1744.76 774.062C1747.74 768.239 1749.88 761.278 1751.15 753.182C1752.43 745.085 1752.54 738.161 1751.47 732.408C1750.41 726.584 1748.24 722.145 1744.97 719.091C1741.71 715.966 1737.38 714.403 1731.98 714.403C1726.58 714.403 1721.68 715.966 1717.28 719.091C1712.87 722.145 1709.14 726.584 1706.09 732.408C1703.04 738.161 1700.87 745.085 1699.59 753.182ZM1843.44 896.364C1836.62 896.364 1830.26 895.831 1824.37 894.766C1818.47 893.771 1813.32 892.386 1808.92 890.611L1828.74 848.849C1833.28 850.554 1837.47 851.655 1841.31 852.152C1845.21 852.649 1848.66 852.365 1851.64 851.3C1854.62 850.234 1857.07 848.21 1858.99 845.227L1860.91 842.244L1831.72 671.364H1890.95L1898.41 784.716H1900.11L1945.92 671.364H2009.84L1920.78 848.636C1916.24 857.656 1910.56 865.753 1903.74 872.926C1896.99 880.17 1888.68 885.888 1878.81 890.078C1868.94 894.268 1857.15 896.364 1843.44 896.364Z" fill="white"/>
<path d="M163.852 1246L182.034 1136.91H220.102L216.693 1157.65H217.83C221.097 1149.98 225.192 1144.37 230.116 1140.82C235.041 1137.26 240.415 1135.49 246.239 1135.49C247.943 1135.49 249.577 1135.63 251.139 1135.91C252.749 1136.15 254.335 1136.48 255.898 1136.91L250.216 1170.43C248.369 1169.72 246.073 1169.22 243.327 1168.94C240.58 1168.61 238.142 1168.44 236.011 1168.44C232.223 1168.44 228.672 1169.32 225.358 1171.07C222.091 1172.78 219.297 1175.19 216.977 1178.32C214.705 1181.39 213.189 1185.02 212.432 1189.18L203.057 1246H163.852ZM296.31 1247.99C284.662 1247.99 275.003 1245.76 267.332 1241.31C259.662 1236.81 254.264 1230.37 251.139 1221.99C248.014 1213.57 247.446 1203.48 249.435 1191.74C251.329 1180.47 255.235 1170.62 261.153 1162.19C267.119 1153.77 274.624 1147.21 283.668 1142.52C292.759 1137.83 302.938 1135.49 314.207 1135.49C322.446 1135.49 329.667 1136.77 335.869 1139.32C342.119 1141.88 347.209 1145.6 351.139 1150.47C355.069 1155.35 357.721 1161.25 359.094 1168.16C360.514 1175.02 360.514 1182.79 359.094 1191.45L357.673 1200.55H260.23L263.639 1178.95H325.003C325.476 1175.83 325.169 1173.08 324.08 1170.72C323.038 1168.3 321.357 1166.43 319.037 1165.11C316.764 1163.73 314.018 1163.05 310.798 1163.05C307.579 1163.05 304.548 1163.73 301.707 1165.11C298.914 1166.48 296.523 1168.4 294.534 1170.86C292.593 1173.32 291.291 1176.21 290.628 1179.52L286.366 1202.25C285.798 1205.75 286.011 1208.88 287.006 1211.62C288 1214.37 289.728 1216.53 292.19 1218.09C294.652 1219.65 297.825 1220.43 301.707 1220.43C304.359 1220.43 306.868 1220.08 309.236 1219.37C311.651 1218.61 313.781 1217.52 315.628 1216.1C317.522 1214.63 319.037 1212.86 320.173 1210.77H355.969C353.412 1218.35 349.364 1224.93 343.824 1230.52C338.331 1236.06 331.561 1240.37 323.511 1243.44C315.509 1246.47 306.442 1247.99 296.31 1247.99ZM405.347 1247.42C397.582 1247.42 390.764 1245.38 384.893 1241.31C379.069 1237.24 374.879 1231.06 372.322 1222.78C369.812 1214.49 369.599 1204.05 371.683 1191.45C373.861 1178.29 377.672 1167.59 383.117 1159.35C388.61 1151.11 394.907 1145.08 402.009 1141.24C409.159 1137.41 416.332 1135.49 423.529 1135.49C428.927 1135.49 433.496 1136.44 437.237 1138.33C441.024 1140.18 444.031 1142.66 446.256 1145.79C448.482 1148.86 449.997 1152.25 450.802 1155.94H451.37L460.603 1100.55H499.808L475.66 1246H436.739L439.722 1228.1H438.87C436.739 1231.8 434.017 1235.11 430.702 1238.05C427.435 1240.93 423.671 1243.23 419.41 1244.93C415.148 1246.59 410.461 1247.42 405.347 1247.42ZM424.808 1217.31C428.406 1217.31 431.673 1216.27 434.609 1214.18C437.544 1212.05 440.03 1209.07 442.066 1205.23C444.102 1201.35 445.546 1196.76 446.398 1191.45C447.298 1186.06 447.369 1181.44 446.612 1177.61C445.854 1173.72 444.339 1170.76 442.066 1168.73C439.841 1166.64 436.929 1165.6 433.33 1165.6C429.732 1165.6 426.488 1166.64 423.6 1168.73C420.712 1170.76 418.273 1173.72 416.285 1177.61C414.344 1181.44 412.923 1186.06 412.023 1191.45C411.124 1196.85 411.005 1201.49 411.668 1205.38C412.379 1209.21 413.846 1212.17 416.072 1214.25C418.297 1216.29 421.209 1217.31 424.808 1217.31ZM646.398 1172.42H611.171C611.361 1170.15 610.958 1168.21 609.964 1166.6C608.969 1164.99 607.573 1163.76 605.773 1162.9C604.022 1162.05 602.033 1161.62 599.808 1161.62C595.925 1161.62 592.397 1162.5 589.225 1164.25C586.053 1165.96 584.277 1168.21 583.898 1171C583.662 1172.09 584.017 1173.11 584.964 1174.05C585.911 1175 588.397 1175.88 592.421 1176.68L614.012 1180.66C624.808 1182.65 632.667 1186.27 637.592 1191.53C642.563 1196.73 644.362 1203.62 642.989 1212.19C641.711 1219.63 638.444 1226.02 633.188 1231.37C627.933 1236.72 621.256 1240.84 613.16 1243.73C605.111 1246.57 596.209 1247.99 586.455 1247.99C569.268 1247.99 556.389 1244.56 547.819 1237.69C539.296 1230.82 535.414 1221.85 536.171 1210.77H574.239C574.334 1214.32 575.518 1217 577.79 1218.8C580.111 1220.55 583.188 1221.47 587.023 1221.57C591.19 1221.71 594.836 1220.88 597.961 1219.08C601.086 1217.24 602.838 1214.94 603.217 1212.19C603.359 1210.63 602.672 1209.45 601.157 1208.64C599.689 1207.84 596.872 1207.03 592.705 1206.23L573.955 1202.82C563.16 1200.88 555.3 1196.99 550.376 1191.17C545.451 1185.3 543.747 1177.82 545.262 1168.73C546.493 1161.48 549.429 1155.4 554.069 1150.47C558.756 1145.55 564.912 1141.83 572.535 1139.32C580.158 1136.77 588.965 1135.49 598.955 1135.49C615.29 1135.49 627.648 1138.78 636.029 1145.36C644.457 1151.89 647.914 1160.91 646.398 1172.42ZM704.602 1247.99C692.764 1247.99 683.011 1245.64 675.34 1240.96C667.717 1236.22 662.367 1229.64 659.289 1221.21C656.211 1212.74 655.596 1202.91 657.442 1191.74C659.289 1180.56 663.148 1170.76 669.019 1162.34C674.89 1153.86 682.442 1147.28 691.675 1142.59C700.908 1137.86 711.467 1135.49 723.352 1135.49C735.141 1135.49 744.848 1137.86 752.471 1142.59C760.141 1147.28 765.515 1153.86 768.593 1162.34C771.718 1170.76 772.357 1180.56 770.511 1191.74C768.664 1202.91 764.781 1212.74 758.863 1221.21C752.944 1229.64 745.369 1236.22 736.136 1240.96C726.95 1245.64 716.439 1247.99 704.602 1247.99ZM709.431 1219.01C712.84 1219.01 715.942 1217.9 718.735 1215.67C721.576 1213.45 723.991 1210.28 725.979 1206.16C728.015 1202.04 729.507 1197.14 730.454 1191.45C731.401 1185.73 731.543 1180.82 730.88 1176.75C730.217 1172.63 728.844 1169.46 726.761 1167.24C724.677 1165.01 721.931 1163.9 718.522 1163.9C715.113 1163.9 711.988 1165.01 709.147 1167.24C706.306 1169.46 703.891 1172.63 701.903 1176.75C699.914 1180.82 698.446 1185.73 697.499 1191.45C696.552 1197.14 696.387 1202.04 697.002 1206.16C697.665 1210.28 699.038 1213.45 701.121 1215.67C703.252 1217.9 706.022 1219.01 709.431 1219.01ZM829.602 1247.99C817.764 1247.99 808.011 1245.64 800.34 1240.96C792.67 1236.22 787.296 1229.64 784.218 1221.21C781.14 1212.74 780.549 1202.91 782.442 1191.74C784.242 1180.56 788.077 1170.76 793.948 1162.34C799.867 1153.86 807.442 1147.28 816.675 1142.59C825.956 1137.86 836.514 1135.49 848.352 1135.49C859.052 1135.49 867.978 1137.43 875.127 1141.31C882.324 1145.15 887.461 1150.59 890.539 1157.65C893.664 1164.66 894.469 1172.89 892.954 1182.36H856.59C857.016 1176.68 856.093 1172.33 853.82 1169.3C851.595 1166.27 848.352 1164.75 844.09 1164.75C840.586 1164.75 837.367 1165.74 834.431 1167.73C831.543 1169.67 829.057 1172.63 826.974 1176.61C824.938 1180.54 823.446 1185.49 822.499 1191.45C821.552 1197.42 821.434 1202.39 822.144 1206.37C822.902 1210.3 824.37 1213.26 826.548 1215.25C828.773 1217.19 831.59 1218.16 834.999 1218.16C837.935 1218.16 840.634 1217.5 843.096 1216.17C845.605 1214.8 847.76 1212.81 849.559 1210.2C851.406 1207.55 852.802 1204.33 853.749 1200.55H890.113C888.314 1210.2 884.692 1218.59 879.246 1225.69C873.801 1232.79 866.865 1238.28 858.437 1242.16C850.009 1246.05 840.397 1247.99 829.602 1247.99ZM938.107 1220.15L946.061 1173.56H951.175L983.845 1136.91H1027.88L974.186 1194.01H963.107L938.107 1220.15ZM898.618 1246L922.766 1100.55H961.97L937.822 1246H898.618ZM965.947 1246L948.05 1202.82L978.447 1174.98L1010.83 1246H965.947ZM1131.55 1172.42H1096.33C1096.52 1170.15 1096.11 1168.21 1095.12 1166.6C1094.13 1164.99 1092.73 1163.76 1090.93 1162.9C1089.18 1162.05 1087.19 1161.62 1084.96 1161.62C1081.08 1161.62 1077.55 1162.5 1074.38 1164.25C1071.21 1165.96 1069.43 1168.21 1069.05 1171C1068.82 1172.09 1069.17 1173.11 1070.12 1174.05C1071.07 1175 1073.55 1175.88 1077.58 1176.68L1099.17 1180.66C1109.96 1182.65 1117.82 1186.27 1122.75 1191.53C1127.72 1196.73 1129.52 1203.62 1128.15 1212.19C1126.87 1219.63 1123.6 1226.02 1118.34 1231.37C1113.09 1236.72 1106.41 1240.84 1098.32 1243.73C1090.27 1246.57 1081.37 1247.99 1071.61 1247.99C1054.42 1247.99 1041.55 1244.56 1032.98 1237.69C1024.45 1230.82 1020.57 1221.85 1021.33 1210.77H1059.4C1059.49 1214.32 1060.67 1217 1062.95 1218.8C1065.27 1220.55 1068.34 1221.47 1072.18 1221.57C1076.35 1221.71 1079.99 1220.88 1083.12 1219.08C1086.24 1217.24 1087.99 1214.94 1088.37 1212.19C1088.51 1210.63 1087.83 1209.45 1086.31 1208.64C1084.85 1207.84 1082.03 1207.03 1077.86 1206.23L1059.11 1202.82C1048.32 1200.88 1040.46 1196.99 1035.53 1191.17C1030.61 1185.3 1028.9 1177.82 1030.42 1168.73C1031.65 1161.48 1034.58 1155.4 1039.23 1150.47C1043.91 1145.55 1050.07 1141.83 1057.69 1139.32C1065.31 1136.77 1074.12 1135.49 1084.11 1135.49C1100.45 1135.49 1112.8 1138.78 1121.19 1145.36C1129.61 1151.89 1133.07 1160.91 1131.55 1172.42Z" fill="white"/>
</svg>
